<svg xmlns="http://www.w3.org/2000/svg" xmlns:xlink="http://www.w3.org/1999/xlink" id="Layer_1" width="240" height="240" x="0" style="enable-background:new 0 0 240 240" y="0" version="1.1" viewBox="0 0 240 240" xml:space="preserve"><style type="text/css">.st0{fill:#787878}.st1{opacity:.91}.st2{fill:#0f0}</style><g><g><path d="M200,40H40c-11,0-19.9,9-19.9,20L20,180c0,11,9,20,20,20h160c11,0,20-9,20-20V60C220,49,211,40,200,40z" class="st0"/><g class="st1"><image style="overflow:visible;opacity:.25" width="184" height="184" transform="matrix(1 0 0 1 10 28)" xlink:href="A3F17A7C67392B6.png"/><g><path d="M160,200H40c-11,0-20-9-20-20V60c0-11,9-20,20-20h120c11,0,20,9,20,20v120C180,191,171,200,160,200z" class="st2"/></g></g></g></g></svg>